<svg width="16" height="14" viewBox="0 0 16 14" fill="none" xmlns="http://www.w3.org/2000/svg">
<path fill-rule="evenodd" clip-rule="evenodd" d="M13.6568 1.93842C13.5525 1.84719 13.384 1.84719 13.2797 1.93842C13.1755 2.02965 13.1755 2.17712 13.2797 2.26835C14.6899 3.50222 15.4667 5.14302 15.4667 6.88835C15.4667 8.63369 14.6899 10.2745 13.2797 11.5084C13.1755 11.5994 13.1755 11.7471 13.2797 11.8383C13.3317 11.8838 13.4 11.9067 13.4683 11.9067C13.5365 11.9067 13.6048 11.8838 13.6568 11.8383C15.1677 10.5162 16 8.75829 16 6.88835C16 5.01842 15.1677 3.26049 13.6568 1.93842Z" fill="#231F20"/>
<path fill-rule="evenodd" clip-rule="evenodd" d="M11.7547 3.60286C11.6505 3.51162 11.4819 3.51162 11.3777 3.60286C11.2734 3.69409 11.2734 3.84179 11.3777 3.93279C12.2801 4.72216 12.7769 5.77192 12.7769 6.88842C12.7769 8.00469 12.2801 9.05422 11.3777 9.84382C11.2734 9.93482 11.2734 10.0825 11.3777 10.1738C11.4297 10.2193 11.4979 10.2421 11.5662 10.2421C11.6345 10.2421 11.7027 10.2193 11.7547 10.1738C12.7579 9.29596 13.3102 8.12929 13.3102 6.88842C13.3102 5.64709 12.7579 4.48042 11.7547 3.60286Z" fill="#231F20"/>
<path fill-rule="evenodd" clip-rule="evenodd" d="M9.47554 5.26707C9.37127 5.3583 9.37127 5.506 9.47554 5.597C9.86994 5.9421 10.087 6.4006 10.087 6.88827C10.087 7.37593 9.86994 7.83443 9.47554 8.17953C9.37127 8.27077 9.37127 8.41847 9.47554 8.50947C9.52754 8.5552 9.5958 8.57783 9.66407 8.57783C9.73234 8.57783 9.8006 8.5552 9.8526 8.50947C10.3475 8.0764 10.6203 7.50053 10.6203 6.88827C10.6203 6.27577 10.3475 5.70013 9.8526 5.26707C9.74833 5.17583 9.5798 5.17583 9.47554 5.26707Z" fill="#231F20"/>
<path fill-rule="evenodd" clip-rule="evenodd" d="M0.533334 6.88841C0.533334 5.14331 1.31014 3.50251 2.72027 2.26841C2.82454 2.17741 2.82454 2.02971 2.72027 1.93847C2.61627 1.84747 2.44747 1.84747 2.3432 1.93847C0.832268 3.26077 0 5.01847 0 6.88841C0 8.75834 0.832268 10.516 2.3432 11.8383C2.39521 11.8838 2.46347 11.9067 2.53174 11.9067C2.60001 11.9067 2.66827 11.8838 2.72027 11.8383C2.82454 11.7471 2.82454 11.5994 2.72027 11.5084C1.31014 10.2743 0.533334 8.63351 0.533334 6.88841Z" fill="#231F20"/>
<path fill-rule="evenodd" clip-rule="evenodd" d="M4.62215 3.60286C4.51789 3.51162 4.34935 3.51162 4.24509 3.60286C3.24215 4.48042 2.68988 5.64709 2.68988 6.88842C2.68988 8.12929 3.24215 9.29596 4.24509 10.1738C4.29709 10.2193 4.36535 10.2421 4.43362 10.2421C4.50189 10.2421 4.57015 10.2193 4.62215 10.1738C4.72642 10.0828 4.72642 9.93482 4.62215 9.84382C3.72002 9.05422 3.22322 8.00469 3.22322 6.88842C3.22322 5.77169 3.72002 4.72216 4.62215 3.93279C4.72642 3.84156 4.72642 3.69409 4.62215 3.60286Z" fill="#231F20"/>
<path fill-rule="evenodd" clip-rule="evenodd" d="M6.5245 5.26707C6.42023 5.17583 6.2517 5.17583 6.14743 5.26707C5.6525 5.70013 5.3797 6.27577 5.3797 6.88827C5.3797 7.50053 5.6525 8.0764 6.14743 8.50947C6.19943 8.5552 6.2677 8.57783 6.33597 8.57783C6.40423 8.57783 6.4725 8.5552 6.5245 8.50947C6.62877 8.41847 6.62877 8.27077 6.5245 8.17953C6.1301 7.83443 5.91303 7.37593 5.91303 6.88827C5.91303 6.4006 6.1301 5.9421 6.5245 5.597C6.62877 5.506 6.62877 5.3583 6.5245 5.26707Z" fill="#231F20"/>
<path fill-rule="evenodd" clip-rule="evenodd" d="M8.00002 7.01006C7.92322 7.01006 7.86082 6.95546 7.86082 6.88849C7.86082 6.82106 7.92322 6.76669 8.00002 6.76669C8.07683 6.76669 8.13896 6.82106 8.13896 6.88849C8.13896 6.95546 8.07683 7.01006 8.00002 7.01006ZM8.00002 6.30002C7.62856 6.30002 7.32749 6.56322 7.32749 6.88849C7.32749 7.21329 7.62856 7.47672 8.00002 7.47672C8.37149 7.47672 8.67229 7.21329 8.67229 6.88849C8.67229 6.56322 8.37149 6.30002 8.00002 6.30002Z" fill="#231F20"/>
</svg>
