<svg version="1.1" xmlns="http://www.w3.org/2000/svg" xmlns:xlink="http://www.w3.org/1999/xlink" width="512" height="512" viewBox="0,0,256,256">
    <g fill="none" fill-rule="nonzero" stroke="none" stroke-width="1" stroke-linecap="butt" stroke-linejoin="miter" stroke-miterlimit="10" stroke-dasharray="" stroke-dashoffset="0" font-family="none" font-weight="none" font-size="none" text-anchor="none" style="mix-blend-mode: normal">
    <g transform="scale(0.5,0.5)">
        <path d="M401.001,186c8.28,0 15,6.72 15,15c0,8.279 -6.72,15 -15,15c-8.29,0 -15,-6.721 -15,-15c0,-8.28 6.71,-15 15,-15z" fill="#fff6e9"></path>
        <path d="M136,436c11.04,0 20,8.949 20,20c0,11.049 -8.96,20 -20,20c-11.049,0 -20,-8.951 -20,-20c0,-11.051 8.951,-20 20,-20z" fill="#fff6e9"></path>
        <path d="M441.331,258h-105.331v3.33c0,13.629 -11.049,24.67 -24.669,24.67h-20.331l-75,50v-50h-40v110c0,13.619 11.04,24.67 24.661,24.67h30.339l75,50v-50h135.331c13.62,0 24.67,-11.051 24.67,-24.67v-113.33c0,-13.631 -11.05,-24.67 -24.67,-24.67z" fill="#fff6e9"></path>
        <path d="M311.331,76h-240.67c-13.62,0 -24.661,11.04 -24.661,24.67v160.66c0,13.629 11.041,24.67 24.661,24.67h105.339h40v50l75,-50h20.331c13.62,0 24.669,-11.041 24.669,-24.67v-3.33v-157.33c0,-13.63 -11.049,-24.67 -24.669,-24.67z" fill="#9bceb5"></path>
        <path d="M264.98,152.47c3.33,8.81 -1.1,18.63 -9.89,21.96c-15.92,6.021 -31.01,-6.49 -52.94,-16.39c9.89,-21.931 12.94,-41.271 28.85,-47.29c8.79,-3.33 18.621,1.1 21.94,9.89c3.01,7.96 0.54,13.44 -5.92,20.43c9.471,0.97 14.951,3.44 17.96,11.4z" fill="#fff6e9"></path>
            <rect x="266" y="346" width="170.001" height="20" fill="#001c4b"></rect>
        <path d="M416.001,456c5.521,0 10,4.48 10,10c0,5.52 -4.479,10 -10,10c-5.53,0 -10,-4.48 -10,-10c0,-5.52 4.47,-10 10,-10z" fill="#001c4b"></path>
            <rect x="316" y="316" width="90.001" height="20" fill="#001c4b"></rect><path d="M396.001,126c5.521,0 10,4.479 10,10c0,5.52 -4.479,10 -10,10c-5.53,0 -10,-4.48 -10,-10c0,-5.521 4.47,-10 10,-10z" fill="#001c4b">
        </path>
        <rect x="296" y="376" width="90.001" height="20" fill="#001c4b"></rect>
        <path d="M376.001,26c5.521,0 10,4.479 10,10c0,5.52 -4.479,10 -10,10c-5.53,0 -10,-4.48 -10,-10c0,-5.521 4.47,-10 10,-10z" fill="#001c4b"></path>
        <path d="M173.5,188c6.57,17.37 -7.08,33.84 -17.879,57.779c-23.94,-10.8 -45.05,-14.119 -51.621,-31.489c-3.629,-9.59 1.21,-20.311 10.801,-23.94c8.68,-3.29 14.67,-0.59 22.3,6.46c1.05,-10.33 3.75,-16.319 12.439,-19.6c9.611,-3.641 20.331,1.2 23.96,10.79z" fill="#fff6e9"></path>
        <path d="M126,116c5.521,0 10,4.479 10,10c0,5.52 -4.479,10 -10,10c-5.529,0 -10,-4.48 -10,-10c0,-5.521 4.471,-10 10,-10z" fill="#001c4b"></path>
        <path d="M126,326c5.521,0 10,4.48 10,10c0,5.52 -4.479,10 -10,10c-5.529,0 -10,-4.48 -10,-10c0,-5.52 4.471,-10 10,-10z" fill="#001c4b"></path><path d="M96,36c5.521,0 10,4.479 10,10c0,5.52 -4.479,10 -10,10c-5.529,0 -10,-4.48 -10,-10c0,-5.521 4.471,-10 10,-10z" fill="#001c4b"></path>
        <path d="M306.002,480.67c-1.94,0 -3.875,-0.564 -5.548,-1.68l-72.481,-48.32h-27.312c-19.112,0 -34.661,-15.553 -34.661,-34.67v-110c0,-5.523 4.478,-10 10,-10c5.523,0 10,4.477 10,10v110c0,8.088 6.577,14.67 14.661,14.67h30.339c1.975,0 3.905,0.584 5.547,1.68l59.453,39.634v-31.314c0,-5.523 4.479,-10 10,-10h135.331c8.089,0 14.67,-6.582 14.67,-14.67v-113.33c0,-8.09 -6.581,-14.67 -14.67,-14.67h-105.331c-5.521,0 -10,-4.479 -10,-10c0,-5.523 4.479,-10 10,-10h105.331c19.117,0 34.67,15.553 34.67,34.67v113.33c0,19.117 -15.553,34.67 -34.67,34.67h-125.331v40c0,3.688 -2.029,7.076 -5.28,8.816c-1.479,0.791 -3.101,1.184 -4.718,1.184z" fill="#001c4b"></path>
        <path d="M216,346c-1.618,0 -3.24,-0.393 -4.718,-1.184c-3.251,-1.74 -5.282,-5.129 -5.282,-8.816v-40h-135.339c-19.112,0 -34.661,-15.553 -34.661,-34.67v-160.66c0,-19.117 15.549,-34.67 34.661,-34.67h240.67c19.117,0 34.67,15.553 34.67,34.67v160.66c0,19.117 -15.553,34.67 -34.67,34.67h-17.302l-72.481,48.32c-1.673,1.116 -3.608,1.68 -5.548,1.68zM70.661,86c-8.083,0 -14.661,6.581 -14.661,14.67v160.66c0,8.088 6.577,14.67 14.661,14.67h145.339c5.523,0 10,4.477 10,10v31.314l59.454,-39.635c1.643,-1.096 3.573,-1.68 5.546,-1.68h20.331c8.089,0 14.669,-6.582 14.669,-14.67v-160.659c0,-8.089 -6.58,-14.67 -14.669,-14.67z" fill="#001c4b"></path>
        <path d="M155.615,255.781c-1.375,0 -2.771,-0.285 -4.106,-0.887c-5.618,-2.535 -11.108,-4.652 -16.418,-6.699c-17.435,-6.724 -33.902,-13.075 -40.443,-30.368c-2.7,-7.134 -2.459,-14.896 0.681,-21.855c3.139,-6.955 8.797,-12.273 15.933,-14.975c3.618,-1.371 7.029,-2.039 10.424,-2.039c3.418,0 6.516,0.682 9.341,1.795c2.699,-5.316 7.221,-9.969 14.983,-12.898c3.248,-1.23 6.655,-1.856 10.118,-1.856c11.806,0 22.547,7.419 26.727,18.462c6.54,17.29 -1.606,32.946 -10.229,49.521c-2.63,5.057 -5.35,10.285 -7.888,15.91c-1.671,3.7 -5.312,5.889 -9.123,5.889zM121.686,198.958c-0.917,0 -2.041,0.25 -3.34,0.742c-2.146,0.813 -3.845,2.409 -4.787,4.498c-0.942,2.086 -1.015,4.413 -0.205,6.552c3.22,8.514 12.612,12.49 28.934,18.785c2.661,1.025 5.499,2.12 8.44,3.306c1.426,-2.845 2.834,-5.552 4.155,-8.09c8.072,-15.516 12.482,-24.709 9.265,-33.214c-1.253,-3.312 -4.478,-5.539 -8.021,-5.539c-1.033,0 -2.057,0.189 -3.043,0.563c-3.066,1.157 -5.085,1.919 -6.034,11.26c-0.383,3.77 -2.865,7 -6.409,8.341c-3.543,1.343 -7.542,0.564 -10.326,-2.008c-4.956,-4.578 -7.143,-5.196 -8.629,-5.196z" fill="#001c4b"></path>
        <path d="M246.475,186.003c-11.546,0 -22.41,-5.654 -33.912,-11.642c-4.62,-2.404 -9.398,-4.892 -14.527,-7.207c-5.033,-2.271 -7.271,-8.192 -5.001,-13.226c2.309,-5.12 4.243,-10.135 6.113,-14.983c6.233,-16.159 12.12,-31.421 28.313,-37.549c3.073,-1.164 6.292,-1.755 9.563,-1.755c11.17,0 21.325,7.019 25.271,17.465c2.658,7.028 2.347,12.926 0.498,18c4.745,2.582 8.884,6.798 11.541,13.827c5.269,13.939 -1.774,29.571 -15.701,34.848c-3.9,1.475 -7.988,2.222 -12.158,2.222zM215.069,153.155c2.357,1.19 4.608,2.361 6.729,3.466c9.672,5.034 18.025,9.382 24.677,9.382c1.769,0 3.43,-0.303 5.078,-0.927c3.616,-1.37 5.446,-5.439 4.074,-9.07c-0.981,-2.596 -1.574,-4.163 -9.625,-4.988c-3.769,-0.386 -6.996,-2.869 -8.335,-6.413c-1.339,-3.544 -0.561,-7.54 2.011,-10.322c5.487,-5.937 4.893,-7.506 3.91,-10.105c-1.024,-2.714 -3.661,-4.535 -6.562,-4.535c-0.842,0 -1.677,0.154 -2.481,0.46c-7.47,2.826 -11.05,11.303 -16.735,26.041c-0.857,2.218 -1.766,4.573 -2.741,7.011z" fill="#001c4b"></path><path d="M456.001,166c-2.56,0 -5.118,-0.977 -7.071,-2.929l-17.5,-17.5c-3.904,-3.905 -3.904,-10.237 0,-14.143l10.429,-10.428l-10.43,-10.429c-3.904,-3.905 -3.904,-10.237 0,-14.143l17.5,-17.5c3.905,-3.905 10.236,-3.905 14.143,0c3.904,3.905 3.904,10.237 0,14.143l-10.43,10.429l10.43,10.429c3.904,3.905 3.904,10.237 0,14.143l-10.43,10.429l10.43,10.429c3.904,3.905 3.904,10.237 0,14.143c-1.953,1.95 -4.511,2.927 -7.071,2.927z" fill="#001c4b"></path>
        <path d="M86.009,419.332c-0.803,0 -1.617,-0.098 -2.431,-0.301l-26.67,-6.66c-3.496,-0.873 -6.251,-3.559 -7.214,-7.031c-0.963,-3.472 0.018,-7.193 2.565,-9.742l6.79,-6.789l-15.011,-3.004c-5.416,-1.084 -8.927,-6.352 -7.843,-11.768c1.084,-5.416 6.355,-8.926 11.768,-7.844l33.329,6.67c3.617,0.725 6.541,3.379 7.61,6.908c1.068,3.529 0.107,7.361 -2.5,9.969l-7.508,7.508l9.529,2.379c5.358,1.338 8.617,6.768 7.279,12.125c-1.134,4.545 -5.212,7.58 -9.693,7.58z" fill="#001c4b"></path><path d="M401.001,226c-13.785,0 -25,-11.215 -25,-25c0,-13.785 11.215,-25 25,-25c13.785,0 25,11.215 25,25c0,13.785 -11.215,25 -25,25zM401.001,196c-2.757,0 -5,2.243 -5,5c0,2.757 2.243,5 5,5c2.757,0 5,-2.243 5,-5c0,-2.757 -2.243,-5 -5,-5z" fill="#001c4b"></path><path d="M136,486c-16.542,0 -30,-13.459 -30,-30c0,-16.543 13.458,-30 30,-30c16.542,0 30,13.457 30,30c0,16.541 -13.458,30 -30,30zM136,446c-5.514,0 -10,4.486 -10,10c0,5.514 4.486,10 10,10c5.515,0 10,-4.486 10,-10c0,-5.514 -4.485,-10 -10,-10z" fill="#001c4b"></path>
    </g>
    </g>
</svg>
