<svg width="24" height="25" viewBox="0 0 24 25" fill="none" xmlns="http://www.w3.org/2000/svg">
<path d="M4 12.3182C4 12.5805 4.10536 12.8319 4.29289 13.0173C4.48043 13.2027 4.73478 13.3069 5 13.3069H12.59L10.29 15.5709C10.1963 15.6628 10.1219 15.7721 10.0711 15.8926C10.0203 16.0131 9.9942 16.1423 9.9942 16.2728C9.9942 16.4033 10.0203 16.5325 10.0711 16.653C10.1219 16.7735 10.1963 16.8828 10.29 16.9747C10.383 17.0674 10.4936 17.1409 10.6154 17.1911C10.7373 17.2413 10.868 17.2672 11 17.2672C11.132 17.2672 11.2627 17.2413 11.3846 17.1911C11.5064 17.1409 11.617 17.0674 11.71 16.9747L15.71 13.0202C15.801 12.9262 15.8724 12.8153 15.92 12.6939C16.02 12.4532 16.02 12.1833 15.92 11.9426C15.8724 11.8212 15.801 11.7103 15.71 11.6163L11.71 7.66177C11.6168 7.56959 11.5061 7.49647 11.3842 7.44658C11.2624 7.3967 11.1319 7.37102 11 7.37102C10.8681 7.37102 10.7376 7.3967 10.6158 7.44658C10.4939 7.49647 10.3832 7.56959 10.29 7.66177C10.1968 7.75395 10.1228 7.86338 10.0723 7.98382C10.0219 8.10426 9.99591 8.23334 9.99591 8.3637C9.99591 8.49406 10.0219 8.62315 10.0723 8.74359C10.1228 8.86402 10.1968 8.97346 10.29 9.06563L12.59 11.3296H5C4.73478 11.3296 4.48043 11.4338 4.29289 11.6192C4.10536 11.8046 4 12.056 4 12.3182ZM17 2.43188H7C6.20435 2.43188 5.44129 2.74436 4.87868 3.30058C4.31607 3.8568 4 4.61119 4 5.39779V8.3637C4 8.62591 4.10536 8.87737 4.29289 9.06277C4.48043 9.24818 4.73478 9.35234 5 9.35234C5.26522 9.35234 5.51957 9.24818 5.70711 9.06277C5.89464 8.87737 6 8.62591 6 8.3637V5.39779C6 5.13559 6.10536 4.88413 6.29289 4.69872C6.48043 4.51332 6.73478 4.40916 7 4.40916H17C17.2652 4.40916 17.5196 4.51332 17.7071 4.69872C17.8946 4.88413 18 5.13559 18 5.39779V19.2387C18 19.5009 17.8946 19.7524 17.7071 19.9378C17.5196 20.1232 17.2652 20.2273 17 20.2273H7C6.73478 20.2273 6.48043 20.1232 6.29289 19.9378C6.10536 19.7524 6 19.5009 6 19.2387V16.2728C6 16.0106 5.89464 15.7591 5.70711 15.5737C5.51957 15.3883 5.26522 15.2842 5 15.2842C4.73478 15.2842 4.48043 15.3883 4.29289 15.5737C4.10536 15.7591 4 16.0106 4 16.2728V19.2387C4 20.0253 4.31607 20.7797 4.87868 21.3359C5.44129 21.8921 6.20435 22.2046 7 22.2046H17C17.7956 22.2046 18.5587 21.8921 19.1213 21.3359C19.6839 20.7797 20 20.0253 20 19.2387V5.39779C20 4.61119 19.6839 3.8568 19.1213 3.30058C18.5587 2.74436 17.7956 2.43188 17 2.43188Z" fill="#666C8E"/>
</svg>
