<svg width="19" height="19" viewBox="0 0 19 19" fill="none" xmlns="http://www.w3.org/2000/svg">
<path fill-rule="evenodd" clip-rule="evenodd" d="M17.0999 7.15228L16.3738 6.42617C16.25 6.30235 16.0499 6.30235 15.9261 6.42617L12.1261 10.2262C12.0666 10.2857 12.0333 10.3661 12.0333 10.45V13.8023L11.0833 14.7523L4.24781 7.91671L5.1978 6.96672H8.55001C8.63392 6.96672 8.71467 6.93347 8.77389 6.87393L12.5739 3.07395C12.6977 2.95013 12.6977 2.75 12.5739 2.62618L11.8477 1.90007L12.9833 0.764509L18.2355 6.01672L17.0999 7.15228ZM18.9071 5.79284L13.2072 0.0928621C13.0834 -0.030954 12.8832 -0.030954 12.7594 0.0928621L11.1761 1.67619C11.0523 1.80001 11.0523 2.00014 11.1761 2.12395L11.9022 2.85007L8.41891 6.33339H5.0667C4.98279 6.33339 4.90204 6.36695 4.84282 6.42617L3.57617 7.69283C3.45235 7.81665 3.45235 8.01678 3.57617 8.1406L6.99392 11.5584L0.0928617 18.4595C-0.0309539 18.5833 -0.0309539 18.7834 0.0928617 18.9072C0.154611 18.969 0.235677 19 0.316743 19C0.397809 19 0.478875 18.969 0.540625 18.9072L7.44168 12.0061L10.8594 15.4239C10.9212 15.4856 11.0023 15.5167 11.0833 15.5167C11.1644 15.5167 11.2455 15.4856 11.3072 15.4239L12.5739 14.1572C12.6334 14.098 12.6666 14.0173 12.6666 13.9334V10.5811L16.1499 7.09782L16.8761 7.82393C16.9999 7.94775 17.2 7.94775 17.3238 7.82393L18.9071 6.2406C19.031 6.11679 19.031 5.91665 18.9071 5.79284Z" fill="#231F20"/>
</svg>
