<svg viewBox="0 0 18 19" fill="none" xmlns="http://www.w3.org/2000/svg">
<path fill-rule="evenodd" clip-rule="evenodd" d="M0.0551758 2.11111V16.8889C0.0551758 18.05 0.93116 19 2.02368 19H15.8032C16.8859 19 17.7717 18.05 17.7717 16.8889V2.11111C17.7717 0.95 16.8859 0 15.8032 0H2.02368C0.93116 0 0.0551758 0.95 0.0551758 2.11111ZM11.8662 6.33329C11.8662 8.08552 10.5473 9.49996 8.91345 9.49996C7.27959 9.49996 5.96069 8.08552 5.96069 6.33329C5.96069 4.58107 7.27959 3.16663 8.91345 3.16663C10.5473 3.16663 11.8662 4.58107 11.8662 6.33329ZM8.91345 11.5056C6.94494 11.5056 3.00794 12.6667 3.00794 14.7778V15.8334H14.819V14.7778C14.819 12.6667 10.882 11.5056 8.91345 11.5056Z" fill="url(#paint0_linear_2343_101)"/>
<defs>
<linearGradient id="paint0_linear_2343_101" x1="8.91344" y1="0" x2="8.91344" y2="19" gradientUnits="userSpaceOnUse">
<stop stop-color="#FF3A44"/>
<stop offset="1" stop-color="#FF8086"/>
</linearGradient>
</defs>
</svg>
