<svg width="18" height="19" viewBox="0 0 18 19" fill="none" xmlns="http://www.w3.org/2000/svg">
<path fill-rule="evenodd" clip-rule="evenodd" d="M0.0551147 2.11111V16.8889C0.0551147 18.05 0.931099 19 2.02362 19H15.8031C16.8858 19 17.7717 18.05 17.7717 16.8889V2.11111C17.7717 0.95 16.8858 0 15.8031 0H2.02362C0.931099 0 0.0551147 0.95 0.0551147 2.11111ZM11.8661 6.33329C11.8661 8.08552 10.5472 9.49996 8.91339 9.49996C7.27953 9.49996 5.96063 8.08552 5.96063 6.33329C5.96063 4.58107 7.27953 3.16663 8.91339 3.16663C10.5472 3.16663 11.8661 4.58107 11.8661 6.33329ZM8.91339 11.5056C6.94488 11.5056 3.00787 12.6667 3.00787 14.7778V15.8334H14.8189V14.7778C14.8189 12.6667 10.8819 11.5056 8.91339 11.5056Z" fill="#A6A6A6"/>
</svg>
