<svg width="none" height="none" viewBox="0 0 24 24" fill="none" xmlns="http://www.w3.org/2000/svg">
<path d="M14.8299 11.2527L10.5899 7.06087C10.497 6.96821 10.3864 6.89466 10.2645 6.84447C10.1427 6.79427 10.012 6.76843 9.87994 6.76843C9.74793 6.76843 9.61723 6.79427 9.49537 6.84447C9.37351 6.89466 9.26291 6.96821 9.16994 7.06087C8.98369 7.2461 8.87915 7.49667 8.87915 7.75786C8.87915 8.01904 8.98369 8.26961 9.16994 8.45485L12.7099 11.9546L9.16994 15.4544C8.98369 15.6396 8.87915 15.8902 8.87915 16.1514C8.87915 16.4126 8.98369 16.6631 9.16994 16.8484C9.26338 16.94 9.3742 17.0125 9.49604 17.0617C9.61787 17.1109 9.74834 17.1358 9.87994 17.1351C10.0115 17.1358 10.142 17.1109 10.2638 17.0617C10.3857 17.0125 10.4965 16.94 10.5899 16.8484L14.8299 12.6566C14.9237 12.5646 14.9981 12.4553 15.0488 12.3348C15.0996 12.2144 15.1257 12.0851 15.1257 11.9546C15.1257 11.8241 15.0996 11.6949 15.0488 11.5744C14.9981 11.4539 14.9237 11.3446 14.8299 11.2527Z" fill="#666C8E"/>
</svg>
