<svg width="none" height="none" viewBox="0 0 60 60" fill="none" xmlns="http://www.w3.org/2000/svg">
<path fill-rule="evenodd" clip-rule="evenodd" d="M2.00039 21.0005C2.00039 10.5235 10.5234 2.00049 21.0003 2.00049C31.4773 2.00049 40.0002 10.5235 40.0002 21.0005C40.0002 31.4775 31.4773 40.0005 21.0003 40.0005C10.5234 40.0005 2.00039 31.4775 2.00039 21.0005ZM59.7071 58.2935L36.5162 35.1025C39.9102 31.3705 42.0002 26.4315 42.0002 21.0005C42.0002 9.42049 32.5803 0.000488281 21.0003 0.000488281C9.42036 0.000488281 0.000396729 9.42049 0.000396729 21.0005C0.000396729 32.5805 9.42036 42.0005 21.0003 42.0005C26.4303 42.0005 31.3703 39.9115 35.1023 36.5165L58.2932 59.7075C58.4882 59.9025 58.7442 60.0005 59.0001 60.0005C59.2561 60.0005 59.5121 59.9025 59.7071 59.7075C60.0981 59.3165 60.0981 58.6845 59.7071 58.2935Z" fill="#1C1939"/>
</svg>
