<svg width="22" height="22" viewBox="0 0 22 22" fill="none" xmlns="http://www.w3.org/2000/svg">
<path fill-rule="evenodd" clip-rule="evenodd" d="M11 6.23333C13.6286 6.23333 15.7667 8.37173 15.7667 11C15.7667 13.6283 13.6286 15.7667 11 15.7667C8.37137 15.7667 6.23333 13.6283 6.23333 11C6.23333 8.37173 8.37137 6.23333 11 6.23333ZM11 16.5C14.0327 16.5 16.5 14.0327 16.5 11C16.5 7.9673 14.0327 5.5 11 5.5C7.9673 5.5 5.5 7.9673 5.5 11C5.5 14.0327 7.9673 16.5 11 16.5Z" fill="white"/>
<path fill-rule="evenodd" clip-rule="evenodd" d="M18.3333 14.3114V7.68863C19.9811 7.87307 21.2667 9.28803 21.2667 11C21.2667 12.712 19.9811 14.1266 18.3333 14.3114ZM3.66667 14.3114C2.01887 14.1266 0.733333 12.712 0.733333 11C0.733333 9.28803 2.01887 7.87307 3.66667 7.68863V14.3114ZM18.3157 6.95273C18.1309 3.0888 14.9252 0 11 0C7.07483 0 3.86907 3.0888 3.68427 6.95273C1.6236 7.13167 0 8.877 0 11C0 13.2414 1.8095 15.0652 4.03333 15.0652C4.23573 15.0652 4.4 14.901 4.4 14.6986V7.30143C4.4 3.67987 7.36083 0.733333 11 0.733333C14.6392 0.733333 17.6 3.67987 17.6 7.30143V14.6986C17.6 14.901 17.7643 15.0652 17.9667 15.0652C20.1905 15.0652 22 13.2414 22 11C22 8.877 20.3764 7.13167 18.3157 6.95273Z" fill="white"/>
<path fill-rule="evenodd" clip-rule="evenodd" d="M3.99664 21.2667C4.17447 20.0585 5.21031 19.0667 6.37667 19.0667H15.6229C16.7893 19.0667 17.8255 20.0585 18.0033 21.2667H3.99664ZM15.6229 18.3333H6.37667C4.67461 18.3333 3.23617 19.8444 3.23617 21.6333C3.23617 21.8361 3.40044 22 3.60284 22H18.3971C18.5995 22 18.7638 21.8361 18.7638 21.6333C18.7638 19.8444 17.3257 18.3333 15.6229 18.3333Z" fill="white"/>
</svg>
