<svg viewBox="0 0 17 19" fill="none" xmlns="http://www.w3.org/2000/svg">
<path d="M15.9914 5.44837C15.8181 5.24059 15.4716 5.10206 15.0905 5.10206H11.4869L13.0808 0.877277C13.1501 0.669502 13.0808 0.461727 12.9076 0.277018C12.6997 0.115421 12.4225 0 12.076 0H4.03745C3.5177 0 3.10193 0.230841 2.99801 0.577147L0.399315 10.2734C0.330011 10.4812 0.433935 10.689 0.641849 10.8506C0.849763 11.0122 1.12692 11.1045 1.43875 11.1045H4.73043L4.14137 18.2613C4.10675 18.5845 4.41859 18.8846 4.90366 18.9769C5.00758 19 5.07689 19 5.18088 19C5.56202 19 5.90848 18.8615 6.11639 18.6306L16.026 6.11787C16.1646 5.91009 16.1646 5.65614 15.9914 5.44837Z" fill="url(#paint0_linear_2343_72)"/>
<defs>
<linearGradient id="paint0_linear_2343_72" x1="8.25195" y1="0" x2="8.25195" y2="19" gradientUnits="userSpaceOnUse">
<stop stop-color="#FF3A44"/>
<stop offset="1" stop-color="#FF8086"/>
</linearGradient>
</defs>
</svg>
