<svg width="17" height="19" viewBox="0 0 17 19" fill="none" xmlns="http://www.w3.org/2000/svg">
<path d="M16.3461 5.44837C16.1733 5.24059 15.8277 5.10206 15.4476 5.10206H11.8537L13.4433 0.877277C13.5124 0.669502 13.4433 0.461727 13.2705 0.277018C13.0632 0.115421 12.7868 0 12.4412 0H4.42404C3.90567 0 3.49102 0.230841 3.38737 0.577147L0.795605 10.2734C0.726486 10.4812 0.830132 10.689 1.03749 10.8506C1.24485 11.0122 1.52127 11.1045 1.83227 11.1045H5.11517L4.52768 18.2613C4.49316 18.5845 4.80416 18.8846 5.28794 18.9769C5.39158 19 5.4607 19 5.56442 19C5.94454 19 6.29008 18.8615 6.49744 18.6306L16.3806 6.11787C16.5188 5.91009 16.5188 5.65614 16.3461 5.44837Z" fill="#A6A6A6"/>
</svg>
